<svg xmlns="http://www.w3.org/2000/svg" width="1008" height="1008" viewBox="0 0 1008 1008" version="1.1"><path d="M 478 67.580 C 476.075 67.796, 468.875 68.456, 462 69.046 C 434.900 71.373, 400.113 78.222, 375.412 86.092 C 304.271 108.759, 245.513 144.202, 195.287 194.741 C 143.158 247.197, 108.867 303.932, 86.092 375.412 C 78.468 399.338, 71.996 431.779, 68.815 462 C 67.093 478.364, 67.093 527.636, 68.815 544 C 76.247 614.618, 97.649 677.104, 134.672 736.273 C 166.858 787.713, 218.350 839.178, 269.918 871.449 C 329.121 908.497, 392.530 930.324, 461 937.222 C 477.453 938.880, 528.794 938.846, 545.500 937.167 C 670.255 924.628, 780.716 860.971, 856.791 757.773 C 900.444 698.557, 929.495 621.834, 937.167 545.500 C 938.846 528.794, 938.880 477.453, 937.222 461 C 926.950 359.045, 883.008 266.718, 810.311 194.345 C 739.093 123.446, 649.939 80.763, 549.429 69.445 C 536.442 67.983, 486.110 66.668, 478 67.580 M 468.500 97.469 C 442.731 99.804, 420.626 103.838, 393.913 111.080 C 298.873 136.846, 212.123 201.393, 158.823 286 C 119.832 347.895, 98.859 417.158, 96.341 492.354 C 95.027 531.604, 99.822 570.563, 111.080 612.087 C 139.162 715.667, 211.360 806.869, 307 859.578 C 383.588 901.787, 474.039 918.338, 560 905.875 C 668.921 890.083, 764.978 832.890, 830.193 745 C 866.066 696.654, 892.541 635.899, 902.965 578 C 922.607 468.893, 899.461 360.685, 837.391 271.445 C 797.299 213.805, 746.323 169.639, 684.601 139.066 C 640.884 117.412, 599.675 105.115, 550 98.902 C 529.378 96.323, 488.989 95.612, 468.500 97.469 M 486.728 115.722 C 488.503 115.943, 491.653 115.946, 493.728 115.730 C 495.802 115.513, 494.350 115.333, 490.500 115.328 C 486.650 115.324, 484.952 115.501, 486.728 115.722 M 497.728 183.722 C 499.503 183.943, 502.653 183.946, 504.728 183.730 C 506.802 183.513, 505.350 183.333, 501.500 183.328 C 497.650 183.324, 495.952 183.501, 497.728 183.722 M 530.554 299.750 C 535.898 307.988, 537.311 310, 537.748 310 C 538.013 310, 537.427 308.762, 536.446 307.250 C 531.102 299.012, 529.689 297, 529.252 297 C 528.987 297, 529.573 298.238, 530.554 299.750 M 664 306.194 C 664 306.392, 666.813 308.990, 670.250 311.966 C 673.688 314.943, 675.375 316.123, 674 314.589 C 671.508 311.810, 664 305.506, 664 306.194 M 513.241 360.922 L 513.500 414.200 567.500 444.007 C 597.200 460.400, 621.643 473.675, 621.818 473.506 C 622.103 473.229, 608.493 452.375, 557.530 375 C 548.655 361.525, 536.697 343.300, 530.957 334.500 C 525.217 325.700, 518.825 316.057, 516.752 313.072 L 512.982 307.643 513.241 360.922 M 438.750 392.324 C 409.188 438.273, 385 476.100, 385 476.383 C 385 476.667, 388.038 475.184, 391.750 473.087 C 395.462 470.991, 407.500 464.314, 418.500 458.248 C 475.473 426.833, 492.454 417.074, 493.128 415.360 C 493.991 413.166, 493.982 367.730, 493.112 333.140 L 492.500 308.779 438.750 392.324 M 541.592 316.250 C 543.622 319.413, 545.470 322, 545.698 322 C 546.368 322, 542.750 316.204, 540.226 313.235 C 538.947 311.731, 539.562 313.087, 541.592 316.250 M 550.615 330.250 C 552.714 333.829, 559.138 343, 559.545 343 C 559.804 343, 557.921 339.850, 555.361 336 C 552.801 332.150, 550.521 329, 550.294 329 C 550.068 329, 550.212 329.563, 550.615 330.250 M 513 503.393 C 513 540.027, 513.282 570, 513.627 570 C 515.438 570, 631.965 502.567, 631.294 501.906 C 630.435 501.062, 516.528 438.140, 514.331 437.297 C 513.231 436.875, 513 448.356, 513 503.393 M 473 449.859 C 462.275 455.809, 445.175 465.305, 435 470.960 C 424.825 476.616, 407.402 486.251, 396.282 492.371 C 385.161 498.492, 376.049 503.743, 376.032 504.040 C 376.014 504.337, 387.363 511.064, 401.250 518.990 C 415.137 526.915, 427.095 533.984, 427.821 534.700 C 428.548 535.415, 429.586 536, 430.127 536 C 430.668 536, 444.924 543.935, 461.806 553.632 C 478.688 563.330, 492.837 571.457, 493.250 571.691 C 493.663 571.926, 494 542.166, 494 505.559 C 494 468.952, 493.663 439.009, 493.250 439.020 C 492.837 439.032, 483.725 443.909, 473 449.859 M 890.328 490.500 C 890.333 494.350, 890.513 495.802, 890.730 493.728 C 890.946 491.653, 890.943 488.503, 890.722 486.728 C 890.501 484.952, 890.324 486.650, 890.328 490.500 M 822.328 501.500 C 822.333 505.350, 822.513 506.802, 822.730 504.728 C 822.946 502.653, 822.943 499.503, 822.722 497.728 C 822.501 495.952, 822.324 497.650, 822.328 501.500 M 229.336 503 C 229.336 507.125, 229.513 508.813, 229.728 506.750 C 229.944 504.688, 229.944 501.313, 229.728 499.250 C 229.513 497.188, 229.336 498.875, 229.336 503 M 776.336 503 C 776.336 507.125, 776.513 508.813, 776.728 506.750 C 776.944 504.688, 776.944 501.313, 776.728 499.250 C 776.513 497.188, 776.336 498.875, 776.336 503 M 183.328 504.500 C 183.333 508.350, 183.513 509.802, 183.730 507.728 C 183.946 505.653, 183.943 502.503, 183.722 500.728 C 183.501 498.952, 183.324 500.650, 183.328 504.500 M 115.328 516.500 C 115.333 520.350, 115.513 521.802, 115.730 519.728 C 115.946 517.653, 115.943 514.503, 115.722 512.728 C 115.501 510.952, 115.324 512.650, 115.328 516.500 M 616.500 533.358 C 614.300 534.536, 612.275 535.757, 612 536.070 C 611.725 536.384, 589.822 548.984, 563.326 564.070 C 530.348 582.847, 514.812 592.225, 514.076 593.797 C 513.351 595.344, 513.005 612.823, 513.014 647.297 L 513.028 698.500 520.264 687.486 C 534.300 666.121, 618.524 536.941, 620.342 533.990 C 622.478 530.522, 621.957 530.437, 616.500 533.358 M 386 533.696 C 386 534.052, 386.610 535.053, 387.357 535.921 C 388.103 536.790, 409.098 569, 434.014 607.500 C 458.929 646, 482.326 682.111, 486.006 687.746 L 492.697 697.991 493.348 687.340 C 493.707 681.482, 493.984 658.196, 493.964 635.594 L 493.928 594.500 443.214 565.552 C 415.321 549.631, 392.266 536.272, 391.980 535.865 C 391.243 534.817, 386 532.916, 386 533.696 M 499.250 776.728 C 501.313 776.944, 504.688 776.944, 506.750 776.728 C 508.813 776.513, 507.125 776.336, 503 776.336 C 498.875 776.336, 497.188 776.513, 499.250 776.728 M 500.728 822.722 C 502.503 822.943, 505.653 822.946, 507.728 822.730 C 509.802 822.513, 508.350 822.333, 504.500 822.328 C 500.650 822.324, 498.952 822.501, 500.728 822.722" stroke="none" fill="#b598f9" fill-rule="evenodd"/><path d="M -0 504.001 L -0 1008.002 504.250 1007.751 L 1008.500 1007.500 1008.751 503.750 L 1009.002 -0 504.501 -0 L 0 0 -0 504.001 M 0.496 504.500 C 0.496 781.700, 0.610 894.951, 0.750 756.168 C 0.890 617.386, 0.890 390.586, 0.750 252.168 C 0.610 113.751, 0.496 227.300, 0.496 504.500 M 460.982 49.528 C 441.710 51.359, 426.868 53.629, 408.359 57.575 C 367.677 66.248, 336.352 77.379, 297.702 96.893 C 252.349 119.792, 217.770 144.993, 181 181.944 C 143.476 219.652, 119.959 252.020, 96.893 297.702 C 63.255 364.325, 48.008 428.356, 48.008 503 C 48.008 577.292, 63.108 641.123, 96.325 707.245 C 113.010 740.459, 130.452 767.207, 152.882 793.980 C 165.570 809.124, 195.360 838.934, 211 852.137 C 281.187 911.386, 369.731 948.354, 461 956.515 C 482.177 958.408, 523.671 958.417, 545 956.532 C 635.169 948.564, 724.188 911.590, 793.980 853.118 C 809.158 840.401, 838.942 810.630, 852.223 794.900 C 911.371 724.840, 948.500 635.887, 956.532 545 C 958.417 523.671, 958.408 482.177, 956.515 461 C 950.179 390.140, 926.303 320.092, 888.004 259.999 C 868.940 230.086, 851.465 208.485, 824.014 180.901 C 787.976 144.688, 752.799 119.209, 707.245 96.325 C 653.722 69.438, 603.224 54.976, 543.754 49.504 C 523.990 47.685, 480.244 47.698, 460.982 49.528 M 480 250.019 C 388.355 258.630, 308.534 315.774, 271.127 399.549 C 255.199 435.221, 247.724 474.062, 249.391 512.500 C 251.076 551.364, 259.431 583.797, 276.439 617.500 C 319.624 703.071, 407.209 757, 503 757 C 570.417 757, 634.482 730.533, 682.046 683.031 C 730.561 634.579, 757 571.076, 757 503 C 757 444.527, 737.918 390.823, 700.150 343 C 661.976 294.665, 600.796 260.113, 538 251.426 C 524.908 249.614, 492.636 248.832, 480 250.019 M 498.221 266.211 C 496.939 266.936, 463.292 318.220, 421.269 383.500 C 359.488 479.471, 346.532 500.191, 346.235 503.500 C 345.907 507.145, 346.801 508.919, 356.316 523.500 C 362.059 532.300, 395.637 584.050, 430.935 638.500 C 466.233 692.950, 496.037 738.288, 497.167 739.250 C 500.141 741.784, 506.313 741.530, 509.332 738.750 C 510.676 737.513, 538.992 694.650, 572.256 643.500 C 605.519 592.350, 639.320 540.379, 647.368 528.008 C 659.234 509.768, 662 504.845, 662 501.969 C 662 498.967, 654.176 486.512, 611.107 420.961 C 583.116 378.357, 549.478 327.132, 536.357 307.128 C 523.236 287.123, 511.599 269.658, 510.498 268.316 C 508.096 265.388, 501.634 264.280, 498.221 266.211" stroke="none" fill="#c6e9f2" fill-rule="evenodd"/><path d="M 482.665 116.008 C 474.506 116.464, 467.701 116.985, 467.543 117.168 C 467.384 117.351, 468.978 131.900, 471.084 149.500 C 473.190 167.100, 474.933 182.130, 474.957 182.900 C 474.993 184.059, 477.367 184.200, 488.750 183.719 C 499.979 183.245, 533.669 184.292, 538.176 185.254 C 538.950 185.419, 540.890 175.019, 544.100 153.500 C 546.725 135.900, 548.902 120.778, 548.936 119.895 C 548.988 118.593, 547.071 118.078, 538.750 117.160 C 524.096 115.544, 499.896 115.047, 482.665 116.008 M 444.500 119.781 C 437.743 120.514, 410.681 126.386, 399 129.654 C 387.620 132.839, 370.061 138.606, 369.236 139.431 C 368.915 139.751, 392.857 201.026, 393.660 201.940 C 393.873 202.182, 398.424 200.950, 403.774 199.200 C 415.506 195.364, 432.998 190.941, 446.250 188.459 C 451.613 187.455, 455.995 186.378, 455.989 186.067 C 455.940 183.589, 448.130 119.829, 447.855 119.667 C 447.660 119.551, 446.150 119.602, 444.500 119.781 M 563.679 153.690 C 561.090 171.735, 558.979 187.011, 558.986 187.636 C 558.994 188.262, 561.085 189.086, 563.634 189.468 C 572.901 190.858, 595.795 196.964, 608.032 201.310 L 620.564 205.760 633.255 176.130 C 640.236 159.834, 646.212 145.763, 646.537 144.862 C 647.006 143.564, 645.450 142.583, 639.032 140.132 C 621.853 133.572, 593.963 125.613, 579 123.001 C 575.425 122.377, 571.574 121.644, 570.443 121.373 C 568.467 120.900, 568.198 122.186, 563.679 153.690 M 342.765 149.987 C 321.774 159.074, 279.249 184.601, 280.345 187.457 C 280.694 188.367, 316.930 237.713, 319.518 240.802 C 319.657 240.968, 323.535 238.659, 328.136 235.671 C 340.327 227.752, 353.053 220.542, 365.080 214.743 L 375.660 209.640 363.137 178.320 C 356.250 161.094, 350.364 147.016, 350.057 147.036 C 349.751 147.056, 346.469 148.384, 342.765 149.987 M 663.551 154.220 C 662.796 156.024, 656.739 170.063, 650.091 185.418 C 643.443 200.774, 638.115 213.374, 638.252 213.418 C 638.388 213.463, 643.225 215.935, 649 218.912 C 662.028 225.628, 680.735 236.841, 687.904 242.233 C 692.480 245.674, 693.477 246.071, 694.404 244.819 C 695.007 244.006, 704.275 232.212, 715 218.611 C 725.725 205.010, 734.500 193.504, 734.500 193.044 C 734.500 189.852, 684.555 159.082, 668.711 152.512 L 664.923 150.941 663.551 154.220 M 257.207 203.517 C 242.401 215.866, 227.383 230.005, 217.568 240.836 C 211.555 247.471, 206.299 253.502, 205.887 254.237 C 205.361 255.178, 210.217 259.572, 222.244 269.037 C 231.652 276.442, 243.539 285.800, 248.660 289.834 L 257.971 297.167 273.913 280.834 C 282.680 271.850, 293.014 262.025, 296.876 259 C 300.738 255.975, 303.909 253.275, 303.922 253 C 303.972 252.005, 264.042 199.001, 263.281 199.051 C 262.851 199.080, 260.118 201.089, 257.207 203.517 M 482.500 203.633 C 454.295 205.533, 422.149 212.775, 394.712 223.409 C 290.595 263.764, 217.436 358.969, 204.836 470.500 C 202.983 486.907, 203.270 525.833, 205.354 540.500 C 209.160 567.297, 214.222 587.422, 222.709 609.500 C 257.946 701.160, 332.980 768.376, 428 793.400 C 470.410 804.570, 520.416 805.887, 563.218 796.962 C 667.936 775.128, 754.548 698.416, 787.293 598.500 C 798.966 562.884, 803.618 531.926, 802.623 496.500 C 801.561 458.667, 796.150 430.716, 783.170 396 C 764.323 345.591, 728.062 297.227, 684.387 264.245 C 640.598 231.177, 591.167 211.514, 535.500 205.017 C 525.647 203.867, 492.046 202.989, 482.500 203.633 M 729.721 231.563 L 708.941 257.902 725.806 274.701 C 735.081 283.941, 745.107 294.338, 748.085 297.808 L 753.500 304.115 780.636 283.785 L 807.772 263.455 803.667 258.477 C 791.385 243.589, 778.064 229.328, 766.570 218.763 C 759.458 212.226, 752.933 206.506, 752.070 206.051 C 750.833 205.399, 746.099 210.803, 729.721 231.563 M 492 229.641 C 432.521 232.495, 377.385 253.059, 332.500 289.130 C 318.445 300.424, 298.656 320.347, 287.432 334.503 C 261.425 367.300, 242.812 408.187, 234.624 450.500 C 230.653 471.024, 229.716 481.048, 229.716 503 C 229.716 524.952, 230.653 534.976, 234.624 555.500 C 250.556 637.835, 303.769 708.545, 378.331 746.460 C 408.156 761.627, 440.863 771.567, 472.500 775.079 C 486.642 776.649, 519.358 776.649, 533.500 775.079 C 565.377 771.540, 599.332 761.155, 628.873 745.909 C 694.959 711.802, 744.256 652.057, 765.394 580.456 C 773.329 553.578, 776.300 532.477, 776.300 503 C 776.300 481.128, 775.016 467.133, 771.390 449.500 C 760.549 396.764, 735.820 349.849, 699.215 312.570 C 658.703 271.311, 610.741 245.300, 555.500 234.628 C 535.942 230.850, 509.724 228.791, 492 229.641 M 186.889 278.750 C 175.891 294.021, 159.510 321.814, 153.506 335.390 C 151.185 340.639, 151.128 341.111, 152.749 341.724 C 153.712 342.088, 167.775 348.119, 184 355.128 C 210.830 366.717, 213.563 367.699, 214.200 365.983 C 216.735 359.149, 234.695 328.586, 242.306 318.153 C 244.451 315.212, 245.822 312.471, 245.353 312.061 C 242.833 309.860, 193.117 271, 192.821 271 C 192.628 271, 189.959 274.488, 186.889 278.750 M 792.102 299.679 C 767.229 318.345, 764.955 320.297, 766.298 321.825 C 769.263 325.198, 785.183 352.606, 790.761 363.942 L 796.500 375.604 827.755 363.107 C 856.240 351.718, 858.960 350.428, 858.433 348.555 C 856.165 340.491, 833.190 298.753, 823.368 284.854 L 819.378 279.208 792.102 299.679 M 140.203 366.782 C 136.458 376.590, 129.837 397.691, 126.956 409 C 124.970 416.799, 120.935 437.326, 121.331 437.621 C 121.710 437.904, 185.626 447.027, 187.136 447.014 C 188.310 447.004, 188.967 445.707, 189.458 442.433 C 190.798 433.494, 196.150 413.294, 200.753 399.797 C 203.323 392.260, 205.218 385.907, 204.963 385.680 C 204.618 385.372, 151.450 362.264, 144.362 359.341 C 143.689 359.064, 141.989 362.106, 140.203 366.782 M 835 381.238 C 818.225 387.903, 804.302 393.512, 804.060 393.702 C 803.818 393.892, 805.045 398.424, 806.787 403.774 C 810.812 416.135, 814.199 429.400, 817.056 444 C 818.294 450.325, 819.396 455.621, 819.505 455.768 C 819.677 456.001, 871.073 450.064, 882.714 448.467 C 887.603 447.796, 887.590 450.440, 882.824 426.500 C 878.688 405.727, 868.002 368.893, 866.160 369.060 C 865.797 369.092, 851.775 374.573, 835 381.238 M 117.157 467.750 C 115.230 486.424, 114.893 500.935, 115.948 519.903 C 116.511 530.024, 117.091 538.404, 117.236 538.525 C 117.381 538.646, 131.900 537.022, 149.500 534.916 C 167.100 532.810, 182.011 531.067, 182.635 531.043 C 183.449 531.012, 183.783 523.864, 183.817 505.750 C 183.843 491.863, 184.265 477.451, 184.756 473.725 C 185.599 467.322, 185.534 466.924, 183.574 466.474 C 181.880 466.085, 119.535 457, 118.560 457 C 118.399 457, 117.768 461.837, 117.157 467.750 M 857 471.165 C 839.675 473.224, 824.645 474.929, 823.600 474.954 C 821.799 474.998, 821.731 475.716, 822.281 488.750 C 822.755 499.979, 821.708 533.673, 820.746 538.175 C 820.580 538.949, 831.392 540.928, 853.846 544.233 C 872.186 546.933, 887.332 548.997, 887.504 548.821 C 889.852 546.404, 891.303 483.691, 889.282 471.961 L 888.500 467.422 857 471.165 M 152.500 554.063 C 135.450 556.166, 121 557.911, 120.389 557.943 C 117.427 558.095, 127.799 604.252, 136.123 627.964 C 137.758 632.619, 139.278 636.612, 139.503 636.836 C 139.852 637.185, 200.764 613.281, 201.913 612.344 C 202.141 612.158, 200.905 607.618, 199.166 602.253 C 195.337 590.434, 190.927 572.929, 188.459 559.750 C 187.048 552.213, 186.278 550.027, 185.067 550.121 C 184.205 550.187, 169.550 551.961, 152.500 554.063 M 816.542 563.567 C 815.198 572.528, 809.901 592.720, 805.339 606.268 C 802.789 613.840, 800.882 620.209, 801.101 620.421 C 802.577 621.845, 862.526 646.850, 863.028 646.251 C 864.085 644.992, 869.825 629.094, 873.046 618.500 C 878.253 601.380, 885.766 569.290, 884.759 568.475 C 884.415 568.197, 819.823 558.963, 818.364 558.984 C 817.738 558.993, 816.919 561.055, 816.542 563.567 M 177.235 643.251 C 149.372 654.370, 147.020 655.495, 147.601 657.415 C 151.389 669.919, 183.554 726, 186.938 726 C 187.636 726, 231.743 693.642, 240.770 686.507 C 240.919 686.389, 237.197 680.265, 232.500 672.897 C 227.802 665.528, 220.760 653.087, 216.849 645.250 C 212.939 637.413, 209.235 631.039, 208.620 631.086 C 208.004 631.134, 193.881 636.608, 177.235 643.251 M 787.500 648.386 C 781.291 660.780, 771.433 677.310, 764.845 686.375 C 762.098 690.156, 760.221 693.572, 760.675 693.967 C 766.256 698.821, 812.406 734.500, 813.103 734.500 C 817.049 734.500, 856.929 667.301, 854.328 665.034 C 853.624 664.421, 826.653 652.767, 800 641.559 L 792.500 638.405 787.500 648.386 M 227 721.109 C 212.975 731.576, 200.864 740.760, 200.087 741.518 C 198.405 743.160, 200.240 745.620, 217.601 765 C 227.361 775.895, 250.378 797.953, 254.243 800.116 C 255.586 800.867, 256.771 799.453, 286.341 761.818 L 297.092 748.136 280.796 732.124 C 271.833 723.318, 262.025 712.961, 259 709.108 C 255.975 705.255, 253.275 702.097, 253 702.091 C 252.725 702.084, 241.025 710.642, 227 721.109 M 731 725.960 C 721.925 735.162, 711.697 745.123, 708.271 748.095 L 702.041 753.500 722.294 780.669 L 742.547 807.838 750.097 801.669 C 763.165 790.992, 775.904 778.929, 787.731 766.030 C 794.020 759.171, 799.537 752.864, 799.992 752.015 C 800.638 750.807, 795.155 746.006, 774.831 729.985 C 760.538 718.718, 748.541 709.439, 748.172 709.365 C 747.802 709.290, 740.075 716.758, 731 725.960 M 292 786.177 C 280.725 800.526, 271.500 812.610, 271.500 813.030 C 271.500 816.160, 317.510 844.586, 335.336 852.470 C 340.545 854.774, 341.020 854.829, 341.859 853.227 C 342.356 852.277, 346.662 842.275, 351.426 831 C 356.191 819.725, 360.940 808.700, 361.981 806.500 C 364.956 800.211, 368.077 792.728, 367.775 792.608 C 367.624 792.549, 361.875 789.617, 355 786.093 C 342.536 779.703, 328.167 770.973, 318.293 763.789 C 315.429 761.705, 312.954 760.020, 312.793 760.044 C 312.632 760.069, 303.275 771.828, 292 786.177 M 682 767.619 C 675.107 772.584, 653.292 785.213, 641.948 790.805 L 630.396 796.500 642.893 827.755 C 654.288 856.254, 655.571 858.960, 657.445 858.428 C 666.234 855.933, 705.933 834.078, 721.126 823.371 L 726.752 819.406 706.626 792.231 C 695.557 777.285, 686.275 765.066, 686 765.078 C 685.725 765.089, 683.925 766.233, 682 767.619 M 372.615 830.408 C 365.681 846.583, 359.756 860.472, 359.449 861.273 C 358.759 863.071, 368.724 867.210, 387.500 872.925 C 406.608 878.740, 436.559 885.820, 437.560 884.759 C 437.889 884.409, 445.848 829.956, 446.604 822.879 L 447.204 817.258 442.352 816.535 C 433.998 815.291, 410.373 809.052, 398.450 804.941 C 392.164 802.773, 386.617 801, 386.122 801 C 385.627 801, 379.549 814.234, 372.615 830.408 M 607.914 804.989 C 604.999 806.693, 578.666 813.696, 564.500 816.534 C 556.800 818.077, 550.391 819.409, 550.259 819.494 C 550.039 819.636, 556.153 872.824, 557.527 882.714 C 558.205 887.603, 555.560 887.590, 579.500 882.824 C 598.234 879.094, 634.556 868.777, 636.779 866.554 C 637.029 866.304, 631.669 852.133, 624.867 835.062 C 612.373 803.706, 611.811 802.709, 607.914 804.989 M 466.923 820.429 C 466.410 820.907, 456.779 887.115, 457.169 887.489 C 458.133 888.413, 477.932 890.007, 495.500 890.576 C 512.109 891.113, 537.332 890.053, 538.554 888.766 C 538.693 888.620, 537.059 873.875, 534.924 856 C 532.789 838.125, 531.033 823.214, 531.021 822.865 C 531.009 822.516, 519.638 822.209, 505.750 822.183 C 491.863 822.157, 477.462 821.736, 473.750 821.247 C 470.038 820.758, 466.966 820.390, 466.923 820.429" stroke="none" fill="#70d6f9" fill-rule="evenodd"/><path d="M 482.665 116.008 C 474.506 116.464, 467.701 116.985, 467.543 117.168 C 467.384 117.351, 468.978 131.900, 471.084 149.500 C 473.190 167.100, 474.933 182.130, 474.957 182.900 C 474.993 184.059, 477.367 184.200, 488.750 183.719 C 499.979 183.245, 533.669 184.292, 538.176 185.254 C 538.950 185.419, 540.890 175.019, 544.100 153.500 C 546.725 135.900, 548.902 120.778, 548.936 119.895 C 548.988 118.593, 547.071 118.078, 538.750 117.160 C 524.096 115.544, 499.896 115.047, 482.665 116.008 M 444.500 119.781 C 437.743 120.514, 410.681 126.386, 399 129.654 C 387.620 132.839, 370.061 138.606, 369.236 139.431 C 368.915 139.751, 392.857 201.026, 393.660 201.940 C 393.873 202.182, 398.424 200.950, 403.774 199.200 C 415.506 195.364, 432.998 190.941, 446.250 188.459 C 451.613 187.455, 455.995 186.378, 455.989 186.067 C 455.940 183.589, 448.130 119.829, 447.855 119.667 C 447.660 119.551, 446.150 119.602, 444.500 119.781 M 563.679 153.690 C 561.090 171.735, 558.979 187.011, 558.986 187.636 C 558.994 188.262, 561.085 189.086, 563.634 189.468 C 572.901 190.858, 595.795 196.964, 608.032 201.310 L 620.564 205.760 633.255 176.130 C 640.236 159.834, 646.212 145.763, 646.537 144.862 C 647.006 143.564, 645.450 142.583, 639.032 140.132 C 621.853 133.572, 593.963 125.613, 579 123.001 C 575.425 122.377, 571.574 121.644, 570.443 121.373 C 568.467 120.900, 568.198 122.186, 563.679 153.690 M 342.765 149.987 C 321.774 159.074, 279.249 184.601, 280.345 187.457 C 280.694 188.367, 316.930 237.713, 319.518 240.802 C 319.657 240.968, 323.535 238.659, 328.136 235.671 C 340.327 227.752, 353.053 220.542, 365.080 214.743 L 375.660 209.640 363.137 178.320 C 356.250 161.094, 350.364 147.016, 350.057 147.036 C 349.751 147.056, 346.469 148.384, 342.765 149.987 M 663.551 154.220 C 662.796 156.024, 656.739 170.063, 650.091 185.418 C 643.443 200.774, 638.115 213.374, 638.252 213.418 C 638.388 213.463, 643.225 215.935, 649 218.912 C 662.028 225.628, 680.735 236.841, 687.904 242.233 C 692.480 245.674, 693.477 246.071, 694.404 244.819 C 695.007 244.006, 704.275 232.212, 715 218.611 C 725.725 205.010, 734.500 193.504, 734.500 193.044 C 734.500 189.852, 684.555 159.082, 668.711 152.512 L 664.923 150.941 663.551 154.220 M 257.207 203.517 C 242.401 215.866, 227.383 230.005, 217.568 240.836 C 211.555 247.471, 206.299 253.502, 205.887 254.237 C 205.361 255.178, 210.217 259.572, 222.244 269.037 C 231.652 276.442, 243.539 285.800, 248.660 289.834 L 257.971 297.167 273.913 280.834 C 282.680 271.850, 293.014 262.025, 296.876 259 C 300.738 255.975, 303.909 253.275, 303.922 253 C 303.972 252.005, 264.042 199.001, 263.281 199.051 C 262.851 199.080, 260.118 201.089, 257.207 203.517 M 482.500 203.633 C 454.295 205.533, 422.149 212.775, 394.712 223.409 C 290.595 263.764, 217.436 358.969, 204.836 470.500 C 202.983 486.907, 203.270 525.833, 205.354 540.500 C 209.160 567.297, 214.222 587.422, 222.709 609.500 C 257.946 701.160, 332.980 768.376, 428 793.400 C 470.410 804.570, 520.416 805.887, 563.218 796.962 C 667.936 775.128, 754.548 698.416, 787.293 598.500 C 798.966 562.884, 803.618 531.926, 802.623 496.500 C 801.561 458.667, 796.150 430.716, 783.170 396 C 764.323 345.591, 728.062 297.227, 684.387 264.245 C 640.598 231.177, 591.167 211.514, 535.500 205.017 C 525.647 203.867, 492.046 202.989, 482.500 203.633 M 729.721 231.563 L 708.941 257.902 725.806 274.701 C 735.081 283.941, 745.107 294.338, 748.085 297.808 L 753.500 304.115 780.636 283.785 L 807.772 263.455 803.667 258.477 C 791.385 243.589, 778.064 229.328, 766.570 218.763 C 759.458 212.226, 752.933 206.506, 752.070 206.051 C 750.833 205.399, 746.099 210.803, 729.721 231.563 M 492 229.641 C 432.521 232.495, 377.385 253.059, 332.500 289.130 C 318.445 300.424, 298.656 320.347, 287.432 334.503 C 261.425 367.300, 242.812 408.187, 234.624 450.500 C 230.653 471.024, 229.716 481.048, 229.716 503 C 229.716 524.952, 230.653 534.976, 234.624 555.500 C 250.556 637.835, 303.769 708.545, 378.331 746.460 C 408.156 761.627, 440.863 771.567, 472.500 775.079 C 486.642 776.649, 519.358 776.649, 533.500 775.079 C 565.377 771.540, 599.332 761.155, 628.873 745.909 C 694.959 711.802, 744.256 652.057, 765.394 580.456 C 773.329 553.578, 776.300 532.477, 776.300 503 C 776.300 481.128, 775.016 467.133, 771.390 449.500 C 760.549 396.764, 735.820 349.849, 699.215 312.570 C 658.703 271.311, 610.741 245.300, 555.500 234.628 C 535.942 230.850, 509.724 228.791, 492 229.641 M 186.889 278.750 C 175.891 294.021, 159.510 321.814, 153.506 335.390 C 151.185 340.639, 151.128 341.111, 152.749 341.724 C 153.712 342.088, 167.775 348.119, 184 355.128 C 210.830 366.717, 213.563 367.699, 214.200 365.983 C 216.735 359.149, 234.695 328.586, 242.306 318.153 C 244.451 315.212, 245.822 312.471, 245.353 312.061 C 242.833 309.860, 193.117 271, 192.821 271 C 192.628 271, 189.959 274.488, 186.889 278.750 M 792.102 299.679 C 767.229 318.345, 764.955 320.297, 766.298 321.825 C 769.263 325.198, 785.183 352.606, 790.761 363.942 L 796.500 375.604 827.755 363.107 C 856.240 351.718, 858.960 350.428, 858.433 348.555 C 856.165 340.491, 833.190 298.753, 823.368 284.854 L 819.378 279.208 792.102 299.679 M 140.203 366.782 C 136.458 376.590, 129.837 397.691, 126.956 409 C 124.970 416.799, 120.935 437.326, 121.331 437.621 C 121.710 437.904, 185.626 447.027, 187.136 447.014 C 188.310 447.004, 188.967 445.707, 189.458 442.433 C 190.798 433.494, 196.150 413.294, 200.753 399.797 C 203.323 392.260, 205.218 385.907, 204.963 385.680 C 204.618 385.372, 151.450 362.264, 144.362 359.341 C 143.689 359.064, 141.989 362.106, 140.203 366.782 M 835 381.238 C 818.225 387.903, 804.302 393.512, 804.060 393.702 C 803.818 393.892, 805.045 398.424, 806.787 403.774 C 810.812 416.135, 814.199 429.400, 817.056 444 C 818.294 450.325, 819.396 455.621, 819.505 455.768 C 819.677 456.001, 871.073 450.064, 882.714 448.467 C 887.603 447.796, 887.590 450.440, 882.824 426.500 C 878.688 405.727, 868.002 368.893, 866.160 369.060 C 865.797 369.092, 851.775 374.573, 835 381.238 M 117.157 467.750 C 115.230 486.424, 114.893 500.935, 115.948 519.903 C 116.511 530.024, 117.091 538.404, 117.236 538.525 C 117.381 538.646, 131.900 537.022, 149.500 534.916 C 167.100 532.810, 182.011 531.067, 182.635 531.043 C 183.449 531.012, 183.783 523.864, 183.817 505.750 C 183.843 491.863, 184.265 477.451, 184.756 473.725 C 185.599 467.322, 185.534 466.924, 183.574 466.474 C 181.880 466.085, 119.535 457, 118.560 457 C 118.399 457, 117.768 461.837, 117.157 467.750 M 857 471.165 C 839.675 473.224, 824.645 474.929, 823.600 474.954 C 821.799 474.998, 821.731 475.716, 822.281 488.750 C 822.755 499.979, 821.708 533.673, 820.746 538.175 C 820.580 538.949, 831.392 540.928, 853.846 544.233 C 872.186 546.933, 887.332 548.997, 887.504 548.821 C 889.852 546.404, 891.303 483.691, 889.282 471.961 L 888.500 467.422 857 471.165 M 152.500 554.063 C 135.450 556.166, 121 557.911, 120.389 557.943 C 117.427 558.095, 127.799 604.252, 136.123 627.964 C 137.758 632.619, 139.278 636.612, 139.503 636.836 C 139.852 637.185, 200.764 613.281, 201.913 612.344 C 202.141 612.158, 200.905 607.618, 199.166 602.253 C 195.337 590.434, 190.927 572.929, 188.459 559.750 C 187.048 552.213, 186.278 550.027, 185.067 550.121 C 184.205 550.187, 169.550 551.961, 152.500 554.063 M 816.542 563.567 C 815.198 572.528, 809.901 592.720, 805.339 606.268 C 802.789 613.840, 800.882 620.209, 801.101 620.421 C 802.577 621.845, 862.526 646.850, 863.028 646.251 C 864.085 644.992, 869.825 629.094, 873.046 618.500 C 878.253 601.380, 885.766 569.290, 884.759 568.475 C 884.415 568.197, 819.823 558.963, 818.364 558.984 C 817.738 558.993, 816.919 561.055, 816.542 563.567 M 177.235 643.251 C 149.372 654.370, 147.020 655.495, 147.601 657.415 C 151.389 669.919, 183.554 726, 186.938 726 C 187.636 726, 231.743 693.642, 240.770 686.507 C 240.919 686.389, 237.197 680.265, 232.500 672.897 C 227.802 665.528, 220.760 653.087, 216.849 645.250 C 212.939 637.413, 209.235 631.039, 208.620 631.086 C 208.004 631.134, 193.881 636.608, 177.235 643.251 M 787.500 648.386 C 781.291 660.780, 771.433 677.310, 764.845 686.375 C 762.098 690.156, 760.221 693.572, 760.675 693.967 C 766.256 698.821, 812.406 734.500, 813.103 734.500 C 817.049 734.500, 856.929 667.301, 854.328 665.034 C 853.624 664.421, 826.653 652.767, 800 641.559 L 792.500 638.405 787.500 648.386 M 227 721.109 C 212.975 731.576, 200.864 740.760, 200.087 741.518 C 198.405 743.160, 200.240 745.620, 217.601 765 C 227.361 775.895, 250.378 797.953, 254.243 800.116 C 255.586 800.867, 256.771 799.453, 286.341 761.818 L 297.092 748.136 280.796 732.124 C 271.833 723.318, 262.025 712.961, 259 709.108 C 255.975 705.255, 253.275 702.097, 253 702.091 C 252.725 702.084, 241.025 710.642, 227 721.109 M 731 725.960 C 721.925 735.162, 711.697 745.123, 708.271 748.095 L 702.041 753.500 722.294 780.669 L 742.547 807.838 750.097 801.669 C 763.165 790.992, 775.904 778.929, 787.731 766.030 C 794.020 759.171, 799.537 752.864, 799.992 752.015 C 800.638 750.807, 795.155 746.006, 774.831 729.985 C 760.538 718.718, 748.541 709.439, 748.172 709.365 C 747.802 709.290, 740.075 716.758, 731 725.960 M 292 786.177 C 280.725 800.526, 271.500 812.610, 271.500 813.030 C 271.500 816.160, 317.510 844.586, 335.336 852.470 C 340.545 854.774, 341.020 854.829, 341.859 853.227 C 342.356 852.277, 346.662 842.275, 351.426 831 C 356.191 819.725, 360.940 808.700, 361.981 806.500 C 364.956 800.211, 368.077 792.728, 367.775 792.608 C 367.624 792.549, 361.875 789.617, 355 786.093 C 342.536 779.703, 328.167 770.973, 318.293 763.789 C 315.429 761.705, 312.954 760.020, 312.793 760.044 C 312.632 760.069, 303.275 771.828, 292 786.177 M 682 767.619 C 675.107 772.584, 653.292 785.213, 641.948 790.805 L 630.396 796.500 642.893 827.755 C 654.288 856.254, 655.571 858.960, 657.445 858.428 C 666.234 855.933, 705.933 834.078, 721.126 823.371 L 726.752 819.406 706.626 792.231 C 695.557 777.285, 686.275 765.066, 686 765.078 C 685.725 765.089, 683.925 766.233, 682 767.619 M 372.615 830.408 C 365.681 846.583, 359.756 860.472, 359.449 861.273 C 358.759 863.071, 368.724 867.210, 387.500 872.925 C 406.608 878.740, 436.559 885.820, 437.560 884.759 C 437.889 884.409, 445.848 829.956, 446.604 822.879 L 447.204 817.258 442.352 816.535 C 433.998 815.291, 410.373 809.052, 398.450 804.941 C 392.164 802.773, 386.617 801, 386.122 801 C 385.627 801, 379.549 814.234, 372.615 830.408 M 607.914 804.989 C 604.999 806.693, 578.666 813.696, 564.500 816.534 C 556.800 818.077, 550.391 819.409, 550.259 819.494 C 550.039 819.636, 556.153 872.824, 557.527 882.714 C 558.205 887.603, 555.560 887.590, 579.500 882.824 C 598.234 879.094, 634.556 868.777, 636.779 866.554 C 637.029 866.304, 631.669 852.133, 624.867 835.062 C 612.373 803.706, 611.811 802.709, 607.914 804.989 M 466.923 820.429 C 466.410 820.907, 456.779 887.115, 457.169 887.489 C 458.133 888.413, 477.932 890.007, 495.500 890.576 C 512.109 891.113, 537.332 890.053, 538.554 888.766 C 538.693 888.620, 537.059 873.875, 534.924 856 C 532.789 838.125, 531.033 823.214, 531.021 822.865 C 531.009 822.516, 519.638 822.209, 505.750 822.183 C 491.863 822.157, 477.462 821.736, 473.750 821.247 C 470.038 820.758, 466.966 820.390, 466.923 820.429" stroke="none" fill="#70d6f9" fill-rule="evenodd"/><path d="M 478 67.580 C 476.075 67.796, 468.875 68.456, 462 69.046 C 434.900 71.373, 400.113 78.222, 375.412 86.092 C 304.271 108.759, 245.513 144.202, 195.287 194.741 C 143.158 247.197, 108.867 303.932, 86.092 375.412 C 78.468 399.338, 71.996 431.779, 68.815 462 C 67.093 478.364, 67.093 527.636, 68.815 544 C 76.247 614.618, 97.649 677.104, 134.672 736.273 C 166.858 787.713, 218.350 839.178, 269.918 871.449 C 329.121 908.497, 392.530 930.324, 461 937.222 C 477.453 938.880, 528.794 938.846, 545.500 937.167 C 670.255 924.628, 780.716 860.971, 856.791 757.773 C 900.444 698.557, 929.495 621.834, 937.167 545.500 C 938.846 528.794, 938.880 477.453, 937.222 461 C 926.950 359.045, 883.008 266.718, 810.311 194.345 C 739.093 123.446, 649.939 80.763, 549.429 69.445 C 536.442 67.983, 486.110 66.668, 478 67.580 M 468.500 97.469 C 442.731 99.804, 420.626 103.838, 393.913 111.080 C 298.873 136.846, 212.123 201.393, 158.823 286 C 119.832 347.895, 98.859 417.158, 96.341 492.354 C 95.027 531.604, 99.822 570.563, 111.080 612.087 C 139.162 715.667, 211.360 806.869, 307 859.578 C 383.588 901.787, 474.039 918.338, 560 905.875 C 668.921 890.083, 764.978 832.890, 830.193 745 C 866.066 696.654, 892.541 635.899, 902.965 578 C 922.607 468.893, 899.461 360.685, 837.391 271.445 C 797.299 213.805, 746.323 169.639, 684.601 139.066 C 640.884 117.412, 599.675 105.115, 550 98.902 C 529.378 96.323, 488.989 95.612, 468.500 97.469 M 486.728 115.722 C 488.503 115.943, 491.653 115.946, 493.728 115.730 C 495.802 115.513, 494.350 115.333, 490.500 115.328 C 486.650 115.324, 484.952 115.501, 486.728 115.722 M 497.728 183.722 C 499.503 183.943, 502.653 183.946, 504.728 183.730 C 506.802 183.513, 505.350 183.333, 501.500 183.328 C 497.650 183.324, 495.952 183.501, 497.728 183.722 M 530.554 299.750 C 535.898 307.988, 537.311 310, 537.748 310 C 538.013 310, 537.427 308.762, 536.446 307.250 C 531.102 299.012, 529.689 297, 529.252 297 C 528.987 297, 529.573 298.238, 530.554 299.750 M 664 306.194 C 664 306.392, 666.813 308.990, 670.250 311.966 C 673.688 314.943, 675.375 316.123, 674 314.589 C 671.508 311.810, 664 305.506, 664 306.194 M 513.241 360.922 L 513.500 414.200 567.500 444.007 C 597.200 460.400, 621.643 473.675, 621.818 473.506 C 622.103 473.229, 608.493 452.375, 557.530 375 C 548.655 361.525, 536.697 343.300, 530.957 334.500 C 525.217 325.700, 518.825 316.057, 516.752 313.072 L 512.982 307.643 513.241 360.922 M 438.750 392.324 C 409.188 438.273, 385 476.100, 385 476.383 C 385 476.667, 388.038 475.184, 391.750 473.087 C 395.462 470.991, 407.500 464.314, 418.500 458.248 C 475.473 426.833, 492.454 417.074, 493.128 415.360 C 493.991 413.166, 493.982 367.730, 493.112 333.140 L 492.500 308.779 438.750 392.324 M 541.592 316.250 C 543.622 319.413, 545.470 322, 545.698 322 C 546.368 322, 542.750 316.204, 540.226 313.235 C 538.947 311.731, 539.562 313.087, 541.592 316.250 M 550.615 330.250 C 552.714 333.829, 559.138 343, 559.545 343 C 559.804 343, 557.921 339.850, 555.361 336 C 552.801 332.150, 550.521 329, 550.294 329 C 550.068 329, 550.212 329.563, 550.615 330.250 M 513 503.393 C 513 540.027, 513.282 570, 513.627 570 C 515.438 570, 631.965 502.567, 631.294 501.906 C 630.435 501.062, 516.528 438.140, 514.331 437.297 C 513.231 436.875, 513 448.356, 513 503.393 M 473 449.859 C 462.275 455.809, 445.175 465.305, 435 470.960 C 424.825 476.616, 407.402 486.251, 396.282 492.371 C 385.161 498.492, 376.049 503.743, 376.032 504.040 C 376.014 504.337, 387.363 511.064, 401.250 518.990 C 415.137 526.915, 427.095 533.984, 427.821 534.700 C 428.548 535.415, 429.586 536, 430.127 536 C 430.668 536, 444.924 543.935, 461.806 553.632 C 478.688 563.330, 492.837 571.457, 493.250 571.691 C 493.663 571.926, 494 542.166, 494 505.559 C 494 468.952, 493.663 439.009, 493.250 439.020 C 492.837 439.032, 483.725 443.909, 473 449.859 M 890.328 490.500 C 890.333 494.350, 890.513 495.802, 890.730 493.728 C 890.946 491.653, 890.943 488.503, 890.722 486.728 C 890.501 484.952, 890.324 486.650, 890.328 490.500 M 822.328 501.500 C 822.333 505.350, 822.513 506.802, 822.730 504.728 C 822.946 502.653, 822.943 499.503, 822.722 497.728 C 822.501 495.952, 822.324 497.650, 822.328 501.500 M 229.336 503 C 229.336 507.125, 229.513 508.813, 229.728 506.750 C 229.944 504.688, 229.944 501.313, 229.728 499.250 C 229.513 497.188, 229.336 498.875, 229.336 503 M 776.336 503 C 776.336 507.125, 776.513 508.813, 776.728 506.750 C 776.944 504.688, 776.944 501.313, 776.728 499.250 C 776.513 497.188, 776.336 498.875, 776.336 503 M 183.328 504.500 C 183.333 508.350, 183.513 509.802, 183.730 507.728 C 183.946 505.653, 183.943 502.503, 183.722 500.728 C 183.501 498.952, 183.324 500.650, 183.328 504.500 M 115.328 516.500 C 115.333 520.350, 115.513 521.802, 115.730 519.728 C 115.946 517.653, 115.943 514.503, 115.722 512.728 C 115.501 510.952, 115.324 512.650, 115.328 516.500 M 616.500 533.358 C 614.300 534.536, 612.275 535.757, 612 536.070 C 611.725 536.384, 589.822 548.984, 563.326 564.070 C 530.348 582.847, 514.812 592.225, 514.076 593.797 C 513.351 595.344, 513.005 612.823, 513.014 647.297 L 513.028 698.500 520.264 687.486 C 534.300 666.121, 618.524 536.941, 620.342 533.990 C 622.478 530.522, 621.957 530.437, 616.500 533.358 M 386 533.696 C 386 534.052, 386.610 535.053, 387.357 535.921 C 388.103 536.790, 409.098 569, 434.014 607.500 C 458.929 646, 482.326 682.111, 486.006 687.746 L 492.697 697.991 493.348 687.340 C 493.707 681.482, 493.984 658.196, 493.964 635.594 L 493.928 594.500 443.214 565.552 C 415.321 549.631, 392.266 536.272, 391.980 535.865 C 391.243 534.817, 386 532.916, 386 533.696 M 499.250 776.728 C 501.313 776.944, 504.688 776.944, 506.750 776.728 C 508.813 776.513, 507.125 776.336, 503 776.336 C 498.875 776.336, 497.188 776.513, 499.250 776.728 M 500.728 822.722 C 502.503 822.943, 505.653 822.946, 507.728 822.730 C 509.802 822.513, 508.350 822.333, 504.500 822.328 C 500.650 822.324, 498.952 822.501, 500.728 822.722" stroke="none" fill="#b598f9" fill-rule="evenodd"/><path d="M 478.500 48.591 C 476.300 48.808, 468.650 49.462, 461.500 50.045 C 429.900 52.620, 398.027 59.040, 364.837 69.516 C 342.514 76.562, 326.503 83.165, 300.500 96.047 C 255.324 118.429, 217.890 145.356, 181.671 181.521 C 145.573 217.566, 119.721 253.283, 97.003 298.500 C 70.089 352.066, 55.757 401.587, 49.826 461.500 C 48.163 478.306, 48.163 527.694, 49.826 544.500 C 55.698 603.820, 69.271 651.335, 95.535 704.515 C 118.620 751.258, 144.223 786.999, 181.069 823.916 C 274.971 917.998, 401.159 965.622, 533.595 956.960 C 629.375 950.695, 720.659 913.954, 795.033 851.734 C 821.500 829.592, 853.022 795.587, 873.117 767.500 C 934.596 681.570, 963.879 578.509, 956.963 472.405 C 947.500 327.211, 867.293 194, 742.515 116.240 C 725.115 105.396, 687.261 86.409, 668.500 79.114 C 629.362 63.896, 588.817 54.250, 546 49.970 C 535.239 48.894, 485.684 47.882, 478.500 48.591 M 478 67.580 C 476.075 67.796, 468.875 68.456, 462 69.046 C 434.900 71.373, 400.113 78.222, 375.412 86.092 C 304.271 108.759, 245.513 144.202, 195.287 194.741 C 143.158 247.197, 108.867 303.932, 86.092 375.412 C 78.468 399.338, 71.996 431.779, 68.815 462 C 67.093 478.364, 67.093 527.636, 68.815 544 C 76.247 614.618, 97.649 677.104, 134.672 736.273 C 166.858 787.713, 218.350 839.178, 269.918 871.449 C 329.121 908.497, 392.530 930.324, 461 937.222 C 477.453 938.880, 528.794 938.846, 545.500 937.167 C 670.255 924.628, 780.716 860.971, 856.791 757.773 C 900.444 698.557, 929.495 621.834, 937.167 545.500 C 938.846 528.794, 938.880 477.453, 937.222 461 C 926.950 359.045, 883.008 266.718, 810.311 194.345 C 739.093 123.446, 649.939 80.763, 549.429 69.445 C 536.442 67.983, 486.110 66.668, 478 67.580 M 468.500 97.469 C 442.731 99.804, 420.626 103.838, 393.913 111.080 C 298.873 136.846, 212.123 201.393, 158.823 286 C 119.832 347.895, 98.859 417.158, 96.341 492.354 C 95.027 531.604, 99.822 570.563, 111.080 612.087 C 139.162 715.667, 211.360 806.869, 307 859.578 C 383.588 901.787, 474.039 918.338, 560 905.875 C 668.921 890.083, 764.978 832.890, 830.193 745 C 866.066 696.654, 892.541 635.899, 902.965 578 C 922.607 468.893, 899.461 360.685, 837.391 271.445 C 797.299 213.805, 746.323 169.639, 684.601 139.066 C 640.884 117.412, 599.675 105.115, 550 98.902 C 529.378 96.323, 488.989 95.612, 468.500 97.469 M 476.218 115.934 C 471.662 116.372, 467.745 116.921, 467.513 117.154 C 467.280 117.386, 468.861 132.409, 471.025 150.538 C 473.189 168.667, 474.969 183.726, 474.980 184.002 C 474.991 184.278, 485.133 184.341, 497.519 184.143 C 510.519 183.935, 524.105 184.262, 529.659 184.917 C 534.952 185.541, 539.406 185.928, 539.557 185.776 C 540.200 185.133, 549.340 119.006, 548.853 118.520 C 546.614 116.281, 492.587 114.357, 476.218 115.934 M 440 120.127 C 416.567 123.933, 370.463 136.642, 369.321 139.610 C 368.988 140.474, 391.814 199.264, 393.618 202.189 C 393.851 202.568, 396.620 201.971, 399.771 200.863 C 410.384 197.129, 426.410 192.869, 440.919 189.922 C 448.850 188.312, 455.532 186.801, 455.769 186.564 C 456.179 186.154, 449.417 125.951, 448.433 121.250 C 447.921 118.807, 448.036 118.822, 440 120.127 M 567.972 121.750 C 567.957 122.162, 565.771 137.273, 563.114 155.329 L 558.283 188.157 560.707 189.079 C 562.040 189.585, 563.991 190, 565.044 190 C 568.643 190, 597.484 197.864, 608.895 201.957 C 615.162 204.205, 620.389 205.922, 620.511 205.772 C 620.633 205.622, 626.712 191.594, 634.020 174.599 C 645.995 146.747, 647.142 143.577, 645.644 142.482 C 640.822 138.956, 595.400 125.581, 577.500 122.417 C 568.204 120.774, 568.009 120.760, 567.972 121.750 M 341.500 150.272 C 328.511 156.278, 314.185 163.918, 303.313 170.637 C 290.644 178.467, 279 186.140, 279 186.659 C 279 187.442, 319.166 240.518, 319.977 240.806 C 320.451 240.975, 323.012 239.573, 325.669 237.691 C 333.650 232.038, 354.142 220.287, 365.384 214.917 L 375.935 209.877 374.481 206.188 C 356.413 160.328, 351.041 147.463, 349.879 147.267 C 349.120 147.139, 345.350 148.491, 341.500 150.272 M 664.590 151.854 C 663.610 153.441, 638.034 213.368, 638.268 213.530 C 638.396 213.618, 643.900 216.539, 650.500 220.020 C 664.074 227.181, 681.231 237.558, 687.846 242.608 C 690.289 244.474, 692.635 246, 693.059 246 C 693.915 246, 733.811 195.656, 734.614 193.563 C 735.809 190.450, 690.534 161.845, 670.623 153.134 C 665.012 150.679, 665.281 150.736, 664.590 151.854 M 255.943 204.181 C 242.562 215.317, 225.846 231.280, 215.324 242.971 C 209.646 249.279, 205 254.744, 205 255.115 C 205 255.485, 217.015 265.262, 231.700 276.841 L 258.400 297.893 261.843 293.697 C 267.360 286.973, 290.930 263.933, 297.750 258.596 C 301.188 255.906, 304 253.323, 304 252.857 C 304 252.179, 266.663 201.569, 264.079 198.743 C 263.698 198.327, 260.037 200.774, 255.943 204.181 M 479.500 203.649 C 477.850 203.842, 472.225 204.484, 467 205.077 C 420.780 210.320, 372.300 228.559, 333.599 255.267 C 317.481 266.390, 305.572 276.432, 289.445 292.500 C 248.208 333.585, 219.427 388.201, 208.029 447 C 199.663 490.156, 201.964 542.115, 214.139 585 C 233.672 653.798, 279.464 715.929, 339.140 754.603 C 401.070 794.737, 473.490 810.444, 548.251 799.954 C 573.488 796.413, 606.842 786.152, 632 774.190 C 696.871 743.344, 750.162 688.083, 778.762 622 C 802.847 566.350, 809.490 500.272, 796.933 441.248 C 788.532 401.763, 772.854 365.712, 749.202 331.500 C 737.340 314.340, 730.677 306.502, 713.301 289.258 C 656.711 233.104, 581.372 202.550, 501 203.159 C 490.825 203.237, 481.150 203.457, 479.500 203.649 M 730.410 230.176 C 719.459 244.022, 710.147 255.935, 709.716 256.648 C 709.180 257.533, 714.263 263.263, 725.750 274.722 C 735 283.950, 744.756 294.313, 747.431 297.750 C 750.106 301.188, 752.658 304, 753.103 304 C 753.547 304, 766.088 294.943, 780.973 283.874 C 798.954 270.500, 807.753 263.370, 807.195 262.624 C 796.644 248.513, 771.801 222.177, 758.862 211.385 C 754.652 207.873, 751.007 205, 750.763 205 C 750.519 205, 741.360 216.329, 730.410 230.176 M 471 231.621 C 437.744 235.610, 409.019 244.384, 378.500 259.875 C 352.192 273.229, 331.613 288.289, 310 310.004 C 287.869 332.240, 273.648 351.585, 260.573 377.239 C 239.247 419.081, 230 457.070, 230 502.845 C 230 568.543, 251.556 628.251, 293.236 678 C 333.153 725.645, 386.833 757.856, 448 770.868 C 480.681 777.820, 525.319 777.820, 558 770.868 C 600.289 761.872, 640.261 743.247, 672.511 717.512 C 723.196 677.065, 757.307 621.745, 770.868 558 C 777.820 525.319, 777.820 480.681, 770.868 448 C 765.603 423.252, 757.797 401.507, 745.559 377.500 C 732.397 351.680, 718.603 332.712, 697.529 311.458 C 672.056 285.765, 648.729 269.214, 618.304 255.246 C 589.872 242.193, 564.601 235.124, 533.500 231.523 C 517.542 229.676, 486.822 229.724, 471 231.621 M 495 248.685 C 447.474 250.499, 402.450 264.759, 363.708 290.266 C 307.357 327.367, 267.551 385.624, 253.881 451 C 247.243 482.747, 247.243 523.253, 253.881 555 C 262.120 594.402, 280.377 632.644, 305.680 663.500 C 344.140 710.402, 396.263 741.605, 455 752.889 C 471.843 756.125, 483.274 757.136, 503 757.136 C 542.330 757.136, 573.758 750.260, 610.936 733.521 C 649.864 715.994, 689.004 682.500, 714.269 645.095 C 736.692 611.897, 751.170 572.333, 756.021 531 C 757.457 518.770, 757.457 487.230, 756.021 475 C 752.011 440.830, 740.497 405.259, 724.426 377.385 C 687.354 313.088, 625.100 268.112, 553 253.538 C 536.576 250.218, 510.972 248.075, 495 248.685 M 496.893 268.126 C 495.141 269.982, 474.962 300.750, 452.053 336.500 C 392.519 429.403, 358.590 482.145, 351.738 492.441 C 344.109 503.905, 344.183 504.573, 354.819 520.500 C 359.226 527.100, 392.581 578.400, 428.941 634.500 C 465.300 690.600, 496.188 737.513, 497.580 738.750 C 498.972 739.987, 501.234 741, 502.605 741 C 505.699 741, 510.572 738.559, 511.308 736.640 C 511.840 735.255, 627.422 557.431, 650.745 522.115 C 664.480 501.318, 664.386 502.050, 655.067 488.500 C 651.662 483.550, 634.705 457.900, 617.383 431.500 C 600.062 405.100, 576.513 369.325, 565.053 352 C 553.593 334.675, 536.714 309.025, 527.545 295 C 518.377 280.975, 510.089 268.698, 509.128 267.718 C 508.167 266.738, 505.738 265.669, 503.731 265.344 C 500.512 264.821, 499.704 265.150, 496.893 268.126 M 187.247 277.695 C 174.178 295.399, 149.083 339.640, 151.114 341.395 C 152.110 342.256, 213.118 368.205, 213.371 367.876 C 213.530 367.669, 217.125 361.022, 221.360 353.104 C 225.595 345.186, 232.917 332.873, 237.633 325.742 C 244.751 314.976, 245.976 312.561, 244.853 311.505 C 241.908 308.737, 194.691 271.819, 193.521 271.370 C 192.816 271.099, 190.080 273.858, 187.247 277.695 M 792.936 298.544 C 778.396 309.309, 766.086 318.713, 765.579 319.441 C 764.941 320.358, 765.738 322.263, 768.169 325.633 C 774.139 333.909, 784.814 352.368, 790.659 364.523 C 793.851 371.162, 796.721 375.930, 797.369 375.672 C 797.991 375.423, 812.288 369.706, 829.139 362.966 L 859.778 350.713 858.306 347.106 C 851.488 330.406, 828.321 289.649, 820.012 279.736 C 819.660 279.316, 807.476 287.780, 792.936 298.544 M 513.241 360.922 L 513.500 414.200 567.500 444.007 C 597.200 460.400, 621.643 473.675, 621.818 473.506 C 622.103 473.229, 608.493 452.375, 557.530 375 C 548.655 361.525, 536.697 343.300, 530.957 334.500 C 525.217 325.700, 518.825 316.057, 516.752 313.072 L 512.982 307.643 513.241 360.922 M 438.750 392.324 C 409.188 438.273, 385 476.100, 385 476.383 C 385 476.667, 388.038 475.184, 391.750 473.087 C 395.462 470.991, 407.500 464.314, 418.500 458.248 C 475.473 426.833, 492.454 417.074, 493.128 415.360 C 493.991 413.166, 493.982 367.730, 493.112 333.140 L 492.500 308.779 438.750 392.324 M 141.411 362.750 C 134.051 379.832, 119.149 435.482, 121.346 437.680 C 122.237 438.570, 187.521 447.753, 188.246 447.090 C 188.657 446.714, 189.470 443.728, 190.054 440.454 C 191.838 430.439, 197.715 409.119, 202 397.115 C 204.235 390.854, 205.937 385.606, 205.782 385.455 C 205.151 384.839, 144.715 359, 143.904 359 C 143.421 359, 142.300 360.688, 141.411 362.750 M 836 380.514 C 820.325 386.810, 806.493 392.408, 805.262 392.954 L 803.024 393.946 805.447 400.723 C 809.224 411.286, 812.882 425.107, 816.076 440.878 C 817.687 448.831, 819.205 455.538, 819.449 455.783 C 820.096 456.429, 885.349 448.804, 886.318 447.969 C 889.496 445.230, 869.958 369.907, 865.908 369.283 C 865.134 369.164, 851.675 374.217, 836 380.514 M 513 503.393 C 513 540.027, 513.282 570, 513.627 570 C 515.438 570, 631.965 502.567, 631.294 501.906 C 630.435 501.062, 516.528 438.140, 514.331 437.297 C 513.231 436.875, 513 448.356, 513 503.393 M 473 449.859 C 462.275 455.809, 445.175 465.305, 435 470.960 C 424.825 476.616, 407.402 486.251, 396.282 492.371 C 385.161 498.492, 376.049 503.743, 376.032 504.040 C 376.014 504.337, 387.363 511.064, 401.250 518.990 C 415.137 526.915, 427.095 533.984, 427.821 534.700 C 428.548 535.415, 429.586 536, 430.127 536 C 430.668 536, 444.924 543.935, 461.806 553.632 C 478.688 563.330, 492.837 571.457, 493.250 571.691 C 493.663 571.926, 494 542.166, 494 505.559 C 494 468.952, 493.663 439.009, 493.250 439.020 C 492.837 439.032, 483.725 443.909, 473 449.859 M 117.621 460.250 C 116.453 466.566, 115.018 491.679, 115.036 505.500 C 115.053 518.697, 116.347 537.680, 117.293 538.626 C 117.670 539.003, 173.595 532.793, 181.500 531.496 L 184.500 531.004 184.500 505.252 C 184.500 491.088, 184.841 476.550, 185.258 472.945 L 186.016 466.390 153.758 461.689 C 136.016 459.103, 120.763 456.991, 119.861 456.994 C 118.805 456.998, 118.009 458.154, 117.621 460.250 M 854 471.063 C 836.675 473.178, 822.274 474.929, 821.998 474.954 C 821.722 474.979, 821.659 485.133, 821.857 497.519 C 822.065 510.519, 821.738 524.105, 821.083 529.659 C 820.459 534.952, 820.072 539.402, 820.224 539.549 C 820.376 539.696, 835.651 542.010, 854.168 544.692 L 887.836 549.568 888.413 546.685 C 890.820 534.650, 891.578 474.275, 889.393 468.582 C 888.656 466.661, 891.947 466.430, 854 471.063 M 616.500 533.358 C 614.300 534.536, 612.275 535.757, 612 536.070 C 611.725 536.384, 589.822 548.984, 563.326 564.070 C 530.348 582.847, 514.812 592.225, 514.076 593.797 C 513.351 595.344, 513.005 612.823, 513.014 647.297 L 513.028 698.500 520.264 687.486 C 534.300 666.121, 618.524 536.941, 620.342 533.990 C 622.478 530.522, 621.957 530.437, 616.500 533.358 M 386 533.696 C 386 534.052, 386.610 535.053, 387.357 535.921 C 388.103 536.790, 409.098 569, 434.014 607.500 C 458.929 646, 482.326 682.111, 486.006 687.746 L 492.697 697.991 493.348 687.340 C 493.707 681.482, 493.984 658.196, 493.964 635.594 L 493.928 594.500 443.214 565.552 C 415.321 549.631, 392.266 536.272, 391.980 535.865 C 391.243 534.817, 386 532.916, 386 533.696 M 150.264 553.950 C 133.635 555.978, 119.808 557.859, 119.539 558.128 C 117.529 560.138, 128.635 607.590, 136.165 629.160 L 139.188 637.820 142.344 636.514 C 144.080 635.795, 158.325 630.149, 174 623.966 C 189.675 617.783, 202.632 612.617, 202.793 612.486 C 202.954 612.355, 202.162 609.829, 201.033 606.874 C 197.848 598.537, 193.140 580.913, 189.925 565.289 C 188.316 557.473, 187 550.835, 187 550.539 C 187 549.626, 181.578 550.130, 150.264 553.950 M 816.922 560.706 C 816.415 562.039, 816 563.991, 816 565.044 C 816 568.372, 808.278 597.040, 804.223 608.763 C 801.504 616.626, 800.655 620.295, 801.414 620.916 C 802.011 621.405, 816.085 627.650, 832.689 634.792 L 862.878 647.779 866.301 639.140 C 873.637 620.619, 886.769 570.436, 884.795 568.462 C 884.549 568.216, 869.384 565.824, 851.095 563.148 L 817.843 558.282 816.922 560.706 M 178.175 642.726 C 147.046 655.185, 146.853 655.280, 147.486 657.882 C 148.328 661.347, 162.751 689.914, 168.057 698.628 C 176.458 712.423, 186.285 727.070, 186.950 726.789 C 189.937 725.524, 241 686.459, 241 685.437 C 241 684.712, 240.565 683.849, 240.033 683.520 C 237.983 682.253, 222.389 655.946, 216.425 643.694 C 212.982 636.619, 210.015 630.687, 209.832 630.510 C 209.650 630.333, 195.404 635.830, 178.175 642.726 M 786.500 649.704 C 780.116 662.123, 768.898 680.633, 763.354 687.894 C 761.509 690.310, 760 692.604, 760 692.990 C 760 693.804, 810.504 733.873, 812.491 734.635 C 814.948 735.578, 830.841 711.954, 844.200 687.500 C 850.908 675.220, 855.575 665.214, 854.886 664.588 C 854.424 664.167, 793.290 637.993, 792.824 638.016 C 792.646 638.025, 789.800 643.285, 786.500 649.704 M 225.861 721.612 C 211.362 732.399, 199.170 741.527, 198.766 741.896 C 196.939 743.568, 224.832 774.347, 242.971 790.675 C 249.279 796.354, 254.748 801, 255.124 801 C 255.499 801, 265.309 788.981, 276.923 774.291 L 298.039 747.582 294.770 745.155 C 289.687 741.383, 264.039 715.220, 258.590 708.250 C 255.903 704.813, 253.371 702, 252.963 702 C 252.556 702, 240.359 710.825, 225.861 721.612 M 732 724.937 C 723.475 733.597, 713.237 743.325, 709.250 746.555 C 705.263 749.785, 702 752.791, 702 753.234 C 702 753.872, 739.224 804.206, 741.980 807.295 C 743.815 809.351, 782.757 773.445, 795.262 758.167 C 800.307 752.003, 801.043 750.628, 799.882 749.535 C 796.590 746.438, 749.767 709.858, 748.690 709.542 C 748.036 709.350, 740.525 716.278, 732 724.937 M 291.964 785.875 C 280.754 800.107, 271.433 812.200, 271.250 812.750 C 269.897 816.810, 338.145 857.255, 341.198 854.202 C 342.164 853.236, 368.200 792.824, 367.778 792.527 C 367.625 792.419, 361.650 789.275, 354.500 785.538 C 347.350 781.802, 335.104 774.528, 327.286 769.373 C 319.468 764.218, 312.908 760, 312.708 760 C 312.508 760, 303.173 771.644, 291.964 785.875 M 682.004 767.128 C 677.614 770.806, 652.877 785.148, 641.287 790.737 L 630.073 796.143 631.581 799.910 C 632.410 801.982, 637.985 816.012, 643.970 831.088 C 654.528 857.685, 654.931 858.494, 657.502 858.301 C 660.990 858.040, 689.445 843.627, 704 834.749 C 715.515 827.726, 727 820.033, 727 819.343 C 727 818.228, 686.696 765.462, 685.697 765.269 C 685.038 765.141, 683.377 765.978, 682.004 767.128 M 372.169 831.140 C 364.837 848.244, 359.212 862.595, 359.669 863.031 C 362.381 865.621, 389.370 874.367, 411.500 879.828 C 425.162 883.200, 436.887 885.447, 437.519 884.814 C 437.755 884.578, 439.974 870.461, 442.450 853.443 C 444.926 836.424, 447.168 821.305, 447.432 819.845 C 447.897 817.272, 447.706 817.155, 441.206 816.050 C 428.403 813.873, 405.420 807.318, 387 800.589 C 385.841 800.166, 382.468 807.114, 372.169 831.140 M 608 804.635 C 601.903 807.233, 580.254 813.012, 565.194 816.062 C 557.201 817.681, 550.487 819.180, 550.273 819.394 C 549.749 819.918, 557.600 885.934, 558.266 886.600 C 560.914 889.247, 639.294 868.903, 637.518 866.030 C 637.270 865.628, 631.649 851.639, 625.027 834.943 C 618.404 818.247, 612.652 804.262, 612.243 803.865 C 611.834 803.469, 609.925 803.815, 608 804.635 M 461.606 853.537 C 458.934 871.986, 457.002 887.335, 457.311 887.645 C 459.792 890.125, 535.560 891.840, 537.931 889.469 C 538.797 888.603, 535.008 850.880, 531.505 825.500 L 530.953 821.500 505.227 821.500 C 491.077 821.500, 476.567 821.161, 472.982 820.746 L 466.464 819.992 461.606 853.537" stroke="none" fill="#000000" fill-rule="evenodd"/></svg>